<?xml version="1.0" encoding="UTF-8" standalone="no"?>
<svg
   xmlns:dc="http://purl.org/dc/elements/1.1/"
   xmlns:cc="http://creativecommons.org/ns#"
   xmlns:rdf="http://www.w3.org/1999/02/22-rdf-syntax-ns#"
   xmlns:svg="http://www.w3.org/2000/svg"
   xmlns="http://www.w3.org/2000/svg"
   xmlns:sodipodi="http://sodipodi.sourceforge.net/DTD/sodipodi-0.dtd"
   xmlns:inkscape="http://www.inkscape.org/namespaces/inkscape"
   width="60"
   height="30"
   viewBox="0 0 59.999999 29.999998"
   version="1.1"
   id="svg4"
   sodipodi:docname="logo-cambios-ejercito.svg"
   inkscape:version="0.92.3 (2405546, 2018-03-11)">
  <metadata
     id="metadata10">
    <rdf:RDF>
      <cc:Work
         rdf:about="">
        <dc:format>image/svg+xml</dc:format>
        <dc:type
           rdf:resource="http://purl.org/dc/dcmitype/StillImage" />
        <dc:title></dc:title>
      </cc:Work>
    </rdf:RDF>
  </metadata>
  <defs
     id="defs8" />
  <sodipodi:namedview
     pagecolor="#ffffff"
     bordercolor="#666666"
     borderopacity="1"
     objecttolerance="10"
     gridtolerance="10"
     guidetolerance="10"
     inkscape:pageopacity="0"
     inkscape:pageshadow="2"
     inkscape:window-width="1366"
     inkscape:window-height="705"
     id="namedview6"
     showgrid="false"
     units="px"
     inkscape:zoom="9.8333333"
     inkscape:cx="34.397707"
     inkscape:cy="16.143427"
     inkscape:window-x="-8"
     inkscape:window-y="-8"
     inkscape:window-maximized="1"
     inkscape:current-layer="svg4" />
  <text
     xml:space="preserve"
     style="font-style:normal;font-variant:normal;font-weight:normal;font-stretch:normal;font-size:5.40907812px;line-height:1.25;font-family:'Mathcad UniMath Prime';-inkscape-font-specification:'Mathcad UniMath Prime, Normal';font-variant-ligatures:normal;font-variant-caps:normal;font-variant-numeric:normal;font-feature-settings:normal;text-align:center;letter-spacing:0px;word-spacing:0px;writing-mode:lr-tb;text-anchor:middle;fill:#000080;fill-opacity:1;stroke:none;stroke-width:1.01420212"
     x="41.178654"
     y="9.6536837"
     id="text966"
     inkscape:export-xdpi="96"
     inkscape:export-ydpi="96"><tspan
       sodipodi:role="line"
       id="tspan972"
       x="41.786118"
       y="9.6536837"
       style="stroke-width:1.01420212">CASA DE </tspan><tspan
       sodipodi:role="line"
       x="41.178654"
       y="16.415031"
       style="stroke-width:1.01420212"
       id="tspan982">CAMBIOS</tspan><tspan
       sodipodi:role="line"
       id="tspan974"
       x="41.178654"
       y="23.176378"
       style="stroke-width:1.01420212">EJERCITO</tspan></text>
  <path
     inkscape:connector-curvature="0"
     d="m 14.317226,2.8473289 c -2.762,0 -5.0000005,2.238 -5.0000005,5 0,2.7620001 2.2380005,5.0000001 5.0000005,5.0000001 2.762,0 5,-2.238 5,-5.0000001 0,-2.762 -2.238,-5 -5,-5 z m 0.25,7.4740001 v 0.526 h -0.5 v -0.499 c -0.518,-0.009 -1.053,-0.132 -1.5,-0.3630001 l 0.228,-0.822 c 0.478,0.186 1.114,0.383 1.612,0.271 0.574,-0.131 0.692,-0.722 0.057,-1.006 -0.465,-0.217 -1.889,-0.402 -1.889,-1.621 0,-0.682 0.52,-1.292 1.492,-1.426 v -0.534 h 0.5 v 0.509 c 0.361,0.01 0.768,0.073 1.221,0.21 l -0.181,0.824 c -0.384,-0.135 -0.808,-0.258 -1.222,-0.232 -0.744,0.043 -0.81,0.688 -0.29,0.958 0.855,0.402 1.972,0.7 1.972,1.772 0.002,0.859 -0.672,1.3160001 -1.5,1.4330001 z m -0.25,6.526 c -2.762,0 -5.0000005,2.238 -5.0000005,5 0,2.762 2.2380005,5 5.0000005,5 2.762,0 5,-2.238 5,-5 0,-2.762 -2.238,-5 -5,-5 z m 0,9 c -2.205,0 -4,-1.795 -4,-4 0,-2.205 1.795,-4 4,-4 2.206,0 4,1.795 4,4 0,2.205 -1.794,4 -4,4 z m -0.787,-4.688 h 1.776 l -0.075,0.458 h -1.775 c -0.012,0.153 -0.011,0.306 0.002,0.459 h 1.695 l -0.075,0.458 h -1.539 c 0.189,0.7 0.677,1.264 1.476,1.264 0.231,0 0.47,-0.043 0.71,-0.129 l 0.202,0.74 c -0.337,0.124 -0.682,0.188 -1.025,0.188 -1.472,0 -2.304,-0.951 -2.541,-2.062 h -0.72 l 0.075,-0.458 h 0.58 c -0.01,-0.153 -0.01,-0.306 0.002,-0.459 h -0.504 l 0.075,-0.458 h 0.496 c 0.241,-1.111 1.062,-2.062 2.428,-2.062 0.372,0 0.776,0.064 1.201,0.19 l -0.175,0.725 c -0.332,-0.095 -0.62,-0.142 -0.879,-0.142 -0.756,-10e-4 -1.23,0.577 -1.41,1.288 z m 10.364,-8.925 c 1.233,2.352 1.548,6.801 -2.585,9.756 0.019,-0.882 -0.113,-1.706 -0.436,-2.572 2.113,-1.744 2.051,-4.264 1.193,-6.234 l -2.377,1.236 1.596,-5.1820001 5.032,1.7370001 z m -19.1540005,5.611 c -1.233,-2.352 -1.46,-7.146 2.672,-10.1010001 -0.019,0.882 0.114,1.707 0.436,2.5720001 -2.114,1.745 -2.139,4.609 -1.281,6.58 l 2.377,-1.236 -1.596,5.182 -5.031,-1.738 z"
     id="path2-5"
     style="fill:#008000" />
</svg>
